<?xml version="1.0" encoding="UTF-8" standalone="no"?>
<!-- Created with Inkscape (http://www.inkscape.org/) -->

<svg
   version="1.1"
   id="svg2"
   width="5500"
   height="3000"
   viewBox="0 0 5500 3000"
   sodipodi:docname="vecteezy_white-background-with-orange-geometric_11171111.eps"
   xmlns:inkscape="http://www.inkscape.org/namespaces/inkscape"
   xmlns:sodipodi="http://sodipodi.sourceforge.net/DTD/sodipodi-0.dtd"
   xmlns="http://www.w3.org/2000/svg"
   xmlns:svg="http://www.w3.org/2000/svg">
  <defs
     id="defs6">
    <linearGradient
       x1="0"
       y1="0"
       x2="1"
       y2="0"
       gradientUnits="userSpaceOnUse"
       gradientTransform="matrix(7317.06,-7317.06,7317.06,7317.06,30641.7,16672.6)"
       spreadMethod="pad"
       id="linearGradient18">
      <stop
         style="stop-opacity:1;stop-color:#d3d3d3"
         offset="0"
         id="stop14" />
      <stop
         style="stop-opacity:1;stop-color:#999999"
         offset="1"
         id="stop16" />
    </linearGradient>
    <linearGradient
       x1="0"
       y1="0"
       x2="1"
       y2="0"
       gradientUnits="userSpaceOnUse"
       gradientTransform="matrix(2170.99,-2170.99,2170.99,2170.99,30830.2,7935.32)"
       spreadMethod="pad"
       id="linearGradient26">
      <stop
         style="stop-opacity:1;stop-color:#f9f9f9"
         offset="0"
         id="stop22" />
      <stop
         style="stop-opacity:1;stop-color:#cccccc"
         offset="1"
         id="stop24" />
    </linearGradient>
    <linearGradient
       x1="0"
       y1="0"
       x2="1"
       y2="0"
       gradientUnits="userSpaceOnUse"
       gradientTransform="matrix(-4866.12,4866.11,-4866.11,-4866.12,38503.8,12232.3)"
       spreadMethod="pad"
       id="linearGradient34">
      <stop
         style="stop-opacity:1;stop-color:#ff6600"
         offset="0"
         id="stop30" />
      <stop
         style="stop-opacity:1;stop-color:#ffbb00"
         offset="1"
         id="stop32" />
    </linearGradient>
    <linearGradient
       x1="0"
       y1="0"
       x2="1"
       y2="0"
       gradientUnits="userSpaceOnUse"
       gradientTransform="matrix(-1560.96,1560.96,-1560.96,-1560.96,32777.6,7054.12)"
       spreadMethod="pad"
       id="linearGradient42">
      <stop
         style="stop-opacity:1;stop-color:#ff6600"
         offset="0"
         id="stop38" />
      <stop
         style="stop-opacity:1;stop-color:#ffbb00"
         offset="1"
         id="stop40" />
    </linearGradient>
    <linearGradient
       x1="0"
       y1="0"
       x2="1"
       y2="0"
       gradientUnits="userSpaceOnUse"
       gradientTransform="matrix(-8485.72,6257.14,-6257.14,-8485.72,40971.4,514.285)"
       spreadMethod="pad"
       id="linearGradient50">
      <stop
         style="stop-opacity:1;stop-color:#ff6600"
         offset="0"
         id="stop46" />
      <stop
         style="stop-opacity:1;stop-color:#ffbb00"
         offset="1"
         id="stop48" />
    </linearGradient>
    <linearGradient
       x1="0"
       y1="0"
       x2="1"
       y2="0"
       gradientUnits="userSpaceOnUse"
       gradientTransform="matrix(0,-4444.14,4444.14,0,35337.4,4155.54)"
       spreadMethod="pad"
       id="linearGradient58">
      <stop
         style="stop-opacity:1;stop-color:#f9f9f9"
         offset="0"
         id="stop54" />
      <stop
         style="stop-opacity:1;stop-color:#cccccc"
         offset="1"
         id="stop56" />
    </linearGradient>
    <linearGradient
       x1="0"
       y1="0"
       x2="1"
       y2="0"
       gradientUnits="userSpaceOnUse"
       gradientTransform="matrix(-4285.71,4285.71,-4285.71,-4285.71,44154.1,17792.2)"
       spreadMethod="pad"
       id="linearGradient66">
      <stop
         style="stop-opacity:1;stop-color:#ff6600"
         offset="0"
         id="stop62" />
      <stop
         style="stop-opacity:1;stop-color:#ffbb00"
         offset="1"
         id="stop64" />
    </linearGradient>
    <linearGradient
       x1="0"
       y1="0"
       x2="1"
       y2="0"
       gradientUnits="userSpaceOnUse"
       gradientTransform="matrix(-1082.14,1082.14,-1082.14,-1082.14,41035.7,16907.1)"
       spreadMethod="pad"
       id="linearGradient74">
      <stop
         style="stop-opacity:1;stop-color:#ff6600"
         offset="0"
         id="stop70" />
      <stop
         style="stop-opacity:1;stop-color:#ffbb00"
         offset="1"
         id="stop72" />
    </linearGradient>
    <linearGradient
       x1="0"
       y1="0"
       x2="1"
       y2="0"
       gradientUnits="userSpaceOnUse"
       gradientTransform="matrix(-7317.07,7317.06,-7317.06,-7317.07,10608.3,5827.42)"
       spreadMethod="pad"
       id="linearGradient84">
      <stop
         style="stop-opacity:1;stop-color:#d3d3d3"
         offset="0"
         id="stop80" />
      <stop
         style="stop-opacity:1;stop-color:#999999"
         offset="1"
         id="stop82" />
    </linearGradient>
    <linearGradient
       x1="0"
       y1="0"
       x2="1"
       y2="0"
       gradientUnits="userSpaceOnUse"
       gradientTransform="matrix(-2170.99,2170.99,-2170.99,-2170.99,10419.8,14564.7)"
       spreadMethod="pad"
       id="linearGradient92">
      <stop
         style="stop-opacity:1;stop-color:#f9f9f9"
         offset="0"
         id="stop88" />
      <stop
         style="stop-opacity:1;stop-color:#cccccc"
         offset="1"
         id="stop90" />
    </linearGradient>
    <linearGradient
       x1="0"
       y1="0"
       x2="1"
       y2="0"
       gradientUnits="userSpaceOnUse"
       gradientTransform="matrix(4866.12,-4866.11,4866.11,4866.12,2746.16,10267.7)"
       spreadMethod="pad"
       id="linearGradient100">
      <stop
         style="stop-opacity:1;stop-color:#ff6600"
         offset="0"
         id="stop96" />
      <stop
         style="stop-opacity:1;stop-color:#ffbb00"
         offset="1"
         id="stop98" />
    </linearGradient>
    <linearGradient
       x1="0"
       y1="0"
       x2="1"
       y2="0"
       gradientUnits="userSpaceOnUse"
       gradientTransform="matrix(1560.96,-1560.96,1560.96,1560.96,8472.45,15445.9)"
       spreadMethod="pad"
       id="linearGradient108">
      <stop
         style="stop-opacity:1;stop-color:#ff6600"
         offset="0"
         id="stop104" />
      <stop
         style="stop-opacity:1;stop-color:#ffbb00"
         offset="1"
         id="stop106" />
    </linearGradient>
    <linearGradient
       x1="0"
       y1="0"
       x2="1"
       y2="0"
       gradientUnits="userSpaceOnUse"
       gradientTransform="matrix(10091.3,3053.71,-3053.71,10091.3,-152.469,1374.3)"
       spreadMethod="pad"
       id="linearGradient116">
      <stop
         style="stop-opacity:1;stop-color:#ff6600"
         offset="0"
         id="stop112" />
      <stop
         style="stop-opacity:1;stop-color:#ffbb00"
         offset="1"
         id="stop114" />
    </linearGradient>
    <linearGradient
       x1="0"
       y1="0"
       x2="1"
       y2="0"
       gradientUnits="userSpaceOnUse"
       gradientTransform="matrix(0,4444.14,-4444.14,0,5912.65,18344.5)"
       spreadMethod="pad"
       id="linearGradient124">
      <stop
         style="stop-opacity:1;stop-color:#f9f9f9"
         offset="0"
         id="stop120" />
      <stop
         style="stop-opacity:1;stop-color:#cccccc"
         offset="1"
         id="stop122" />
    </linearGradient>
    <linearGradient
       x1="0"
       y1="0"
       x2="1"
       y2="0"
       gradientUnits="userSpaceOnUse"
       gradientTransform="matrix(4285.71,-4285.71,4285.71,4285.71,-2904.13,4707.76)"
       spreadMethod="pad"
       id="linearGradient132">
      <stop
         style="stop-opacity:1;stop-color:#ff6600"
         offset="0"
         id="stop128" />
      <stop
         style="stop-opacity:1;stop-color:#ffbb00"
         offset="1"
         id="stop130" />
    </linearGradient>
    <linearGradient
       x1="0"
       y1="0"
       x2="1"
       y2="0"
       gradientUnits="userSpaceOnUse"
       gradientTransform="matrix(1082.14,-1082.14,1082.14,1082.14,214.292,5592.86)"
       spreadMethod="pad"
       id="linearGradient140">
      <stop
         style="stop-opacity:1;stop-color:#ff6600"
         offset="0"
         id="stop136" />
      <stop
         style="stop-opacity:1;stop-color:#ffbb00"
         offset="1"
         id="stop138" />
    </linearGradient>
  </defs>
  <sodipodi:namedview
     id="namedview4"
     pagecolor="#ffffff"
     bordercolor="#000000"
     borderopacity="0.25"
     inkscape:showpageshadow="2"
     inkscape:pageopacity="0.0"
     inkscape:pagecheckerboard="0"
     inkscape:deskcolor="#d1d1d1" />
  <g
     id="g8"
     inkscape:groupmode="layer"
     inkscape:label="ink_ext_XXXXXX"
     transform="matrix(1.3333333,0,0,-1.3333333,0,3000)">
    <g
       id="g10"
       transform="scale(0.1)">
      <path
         d="M -0.0078125,22500 H 41250 V 0 H -0.0078125 v 22500"
         style="fill:#e6e6e6;fill-opacity:1;fill-rule:nonzero;stroke:none"
         id="path12" />
      <path
         d="M 31148.9,22500 27537,18888.1 40948.5,5476.51 41250,5777.96 v 2442.8 L 40757.4,7728.14 29788.6,18696.9 33591.8,22500 h -2442.9"
         style="fill:url(#linearGradient18);fill-opacity:1;fill-rule:nonzero;stroke:none"
         id="path20" />
      <path
         d="M 41250,19534.3 21715.7,0 H 41250 Z"
         style="fill:url(#linearGradient26);fill-opacity:1;fill-rule:nonzero;stroke:none"
         id="path28" />
      <path
         d="M 35534.6,22500 31731.4,18696.9 41250,9178.29 V 11145.6 L 33881.3,18514.3 37867,22500 h -2332.4"
         style="fill:url(#linearGradient34);fill-opacity:1;fill-rule:nonzero;stroke:none"
         id="path36" />
      <path
         d="M 37055.6,15340 36072,14356.3 41250,9178.29 V 11145.6 L 37055.6,15340"
         style="fill:url(#linearGradient42);fill-opacity:1;fill-rule:nonzero;stroke:none"
         id="path44" />
      <path
         d="M 41250,15170.5 26079.5,0 H 41250 Z"
         style="fill:url(#linearGradient50);fill-opacity:1;fill-rule:nonzero;stroke:none"
         id="path52" />
      <path
         d="M 35445.5,5561.6 29883.9,0 h 2442.9 L 35636.7,3309.96 38946.7,0 h 2060.4 l -5561.6,5561.6"
         style="fill:url(#linearGradient58);fill-opacity:1;fill-rule:nonzero;stroke:none"
         id="path60" />
      <path
         d="M 40290.5,22500 37725.6,19935.1 41250,16410.7 V 22500 h -959.5"
         style="fill:url(#linearGradient66);fill-opacity:1;fill-rule:nonzero;stroke:none"
         id="path68" />
      <path
         d="M 41250,19534.4 39688.1,17972.5 41250,16410.7 Z"
         style="fill:url(#linearGradient74);fill-opacity:1;fill-rule:nonzero;stroke:none"
         id="path76" />
      <path
         d="m 41240.5,11563.1 c -44.3,-0.7 -86.7,-19.4 -118,-52.3 -32,-33.4 -49.9,-78.8 -49.9,-126.1 0,-47.4 17.9,-92.8 49.9,-126.2 33.7,-35.2 79.9,-54 127.5,-51.9 v 356.1 c -3.2,0.2 -6.3,0.4 -9.5,0.4 z m -452,-473.3 c -44.3,-0.7 -86.6,-19.4 -118,-52.2 -31.9,-33.5 -49.9,-78.9 -49.9,-126.2 0,-47.3 18,-92.7 49.9,-126.2 66.6,-69.7 174.5,-69.7 241,0 66.5,69.7 66.5,182.7 0,252.4 -32.6,34.1 -76.9,52.9 -123,52.2 z m 414.3,-433.8 c -44.3,-0.7 -86.6,-19.4 -118,-52.3 -66.5,-69.7 -66.5,-182.6 0,-252.3 43.3,-45.2 106.3,-62.7 165.2,-45.8 v 344 c -15.4,4.4 -31.2,6.6 -47.2,6.4 z m -866.2,-39.5 c -44.4,-0.6 -86.7,-19.4 -118.1,-52.2 -31.9,-33.5 -49.9,-78.9 -49.9,-126.2 0,-47.3 18,-92.7 49.9,-126.2 32,-33.4 75.3,-52.2 120.5,-52.2 45.2,0 88.6,18.8 120.5,52.2 66.6,69.7 66.6,182.7 0,252.4 -32.5,34.1 -76.9,52.9 -122.9,52.2 z m 414.3,-433.8 c -44.4,-0.7 -86.7,-19.4 -118,-52.3 -32,-33.4 -50,-78.8 -50,-126.1 0,-47.36 18,-92.75 50,-126.21 31.9,-33.47 75.3,-52.28 120.5,-52.28 45.2,0 88.5,18.81 120.5,52.28 31.9,33.46 49.9,78.85 49.9,126.21 0,47.3 -18,92.7 -49.9,126.1 -32.6,34.2 -77,53 -123,52.3 z m -866.3,-39.4 c -44.3,-0.7 -86.7,-19.5 -118,-52.3 -32,-33.4 -49.9,-78.8 -49.9,-126.17 0,-47.33 17.9,-92.72 49.9,-126.19 31.9,-33.46 75.3,-52.26 120.5,-52.26 45.2,0 88.5,18.8 120.5,52.26 66.5,69.68 66.5,182.66 0,252.36 -32.6,34.1 -77,52.9 -123,52.2 z m 1280.6,-394.44 c -44.4,-0.68 -86.7,-19.42 -118,-52.25 -32,-33.47 -50,-78.86 -50,-126.18 0,-47.33 18,-92.72 50,-126.18 53.7,-56.18 136.4,-68.39 202.8,-29.96 v 312.21 c -25.9,15.06 -55.2,22.77 -84.8,22.36 z m -866.3,-39.45 c -44.3,-0.68 -86.7,-19.41 -118,-52.23 -32,-33.47 -49.9,-78.86 -49.9,-126.19 0,-47.33 17.9,-92.71 49.9,-126.18 31.9,-33.47 75.3,-52.27 120.5,-52.27 45.2,0 88.5,18.8 120.5,52.27 32,33.47 49.9,78.85 49.9,126.18 0,47.33 -17.9,92.72 -49.9,126.19 -32.6,34.1 -76.9,52.94 -123,52.23 z m -866.3,-39.43 c -44.3,-0.68 -86.6,-19.42 -118,-52.25 -32,-33.47 -49.9,-78.86 -49.9,-126.19 0,-47.32 17.9,-92.71 49.9,-126.18 32,-33.46 75.3,-52.26 120.5,-52.26 45.2,0 88.5,18.8 120.5,52.26 32,33.47 49.9,78.86 49.9,126.18 0,47.33 -17.9,92.72 -49.9,126.19 -32.6,34.1 -76.9,52.95 -123,52.25 z m 1280.6,-394.4 c -44.3,-0.68 -86.7,-19.42 -118,-52.25 -32,-33.46 -49.9,-78.85 -49.9,-126.18 0,-47.33 17.9,-92.72 49.9,-126.18 66.5,-69.68 174.4,-69.68 241,0 31.9,33.46 49.9,78.85 49.9,126.18 0,47.33 -18,92.72 -49.9,126.18 -32.6,34.1 -76.9,52.95 -123,52.25 z m -866.3,-39.45 c -44.3,-0.68 -86.6,-19.42 -118,-52.25 -66.5,-69.68 -66.5,-182.66 0,-252.34 32,-33.47 75.3,-52.27 120.5,-52.27 45.2,0 88.6,18.8 120.5,52.27 32,33.46 49.9,78.85 49.9,126.18 0,47.33 -17.9,92.73 -49.9,126.19 -32.6,34.1 -76.9,52.95 -123,52.24 z m -866.2,-39.43 c -44.4,-0.68 -86.7,-19.42 -118.1,-52.25 -31.9,-33.47 -49.9,-78.85 -49.9,-126.18 0,-47.33 18,-92.72 49.9,-126.18 32,-33.47 75.3,-52.27 120.5,-52.27 45.2,0 88.6,18.8 120.5,52.27 32,33.46 49.9,78.85 49.9,126.18 0,47.33 -17.9,92.71 -49.9,126.18 -32.5,34.1 -76.9,52.95 -122.9,52.25 z m 2146.8,-354.97 c -44.3,-0.68 -86.6,-19.42 -118,-52.24 -32,-33.47 -49.9,-78.86 -49.9,-126.18 0,-47.33 17.9,-92.72 49.9,-126.18 66.4,-69.49 173.9,-69.69 240.5,-0.47 v 253.3 c -32.5,33.8 -76.7,52.46 -122.5,51.77 z m -866.3,-39.43 c -44.3,-0.67 -86.6,-19.42 -118,-52.25 -31.9,-33.46 -49.9,-78.85 -49.9,-126.17 0,-47.33 18,-92.72 49.9,-126.19 32,-33.46 75.3,-52.26 120.5,-52.26 45.2,0 88.6,18.8 120.5,52.26 32,33.47 49.9,78.86 49.9,126.19 0,47.32 -17.9,92.71 -49.9,126.17 -32.6,34.11 -76.9,52.96 -123,52.25 z m -866.3,-39.44 c -44.3,-0.68 -86.6,-19.42 -118,-52.25 -66.5,-69.69 -66.5,-182.66 0,-252.35 32,-33.47 75.3,-52.27 120.5,-52.27 45.2,0 88.6,18.8 120.5,52.27 32,33.46 50,78.86 50,126.19 0,47.33 -18,92.72 -50,126.19 -32.5,34.1 -76.9,52.94 -123,52.23 z m -866.2,-39.43 c -44.4,-0.68 -86.7,-19.43 -118,-52.26 -32,-33.46 -50,-78.85 -50,-126.18 0,-47.33 18,-92.72 50,-126.18 66.5,-69.68 174.4,-69.68 240.9,0 32,33.46 50,78.85 50,126.18 0,47.33 -18,92.72 -50,126.18 -32.5,34.11 -76.9,52.96 -122.9,52.26 z m 2146.8,-354.97 c -44.3,-0.68 -86.6,-19.43 -118,-52.26 -66.5,-69.69 -66.5,-182.66 0,-252.35 32,-33.47 75.3,-52.27 120.5,-52.27 45.2,0 88.6,18.8 120.5,52.27 32,33.46 49.9,78.85 49.9,126.18 0,47.33 -17.9,92.72 -49.9,126.18 -32.6,34.11 -76.9,52.96 -123,52.25 z m -866.2,-39.43 c -44.4,-0.67 -86.7,-19.42 -118.1,-52.25 -31.9,-33.47 -49.9,-78.85 -49.9,-126.18 0,-47.33 18,-92.72 49.9,-126.19 66.6,-69.67 174.5,-69.67 241,0 32,33.47 49.9,78.86 49.9,126.19 0,47.33 -17.9,92.71 -49.9,126.18 -32.5,34.11 -76.9,52.95 -123,52.25 z m -866.3,-39.45 c -44.3,-0.68 -86.7,-19.42 -118,-52.25 -66.6,-69.69 -66.6,-182.66 0,-252.35 31.9,-33.46 75.3,-52.27 120.5,-52.27 45.2,0 88.5,18.81 120.5,52.27 31.9,33.47 49.9,78.86 49.9,126.19 0,47.33 -18,92.72 -49.9,126.19 -32.6,34.1 -77,52.94 -123,52.24 z m -866.3,-39.43 c -44.3,-0.68 -86.7,-19.42 -118,-52.25 -32,-33.47 -49.9,-78.86 -49.9,-126.19 0,-47.32 17.9,-92.71 49.9,-126.18 32,-33.46 75.3,-52.26 120.5,-52.26 45.2,0 88.5,18.8 120.5,52.26 66.5,69.69 66.5,182.67 0,252.35 -32.6,34.11 -76.9,52.97 -123,52.27 z m 3013.1,-315.53 c -44.3,-0.67 -86.6,-19.42 -118,-52.25 -31.9,-33.47 -49.9,-78.85 -49.9,-126.18 0,-47.33 18,-92.72 49.9,-126.18 66.6,-69.68 174.5,-69.68 241,0 16,16.73 28.6,36.63 37.2,58.53 v 134.9 c -8.5,22.04 -21.2,42.08 -37.2,58.93 -32.5,34.11 -76.9,52.95 -123,52.25 z m -866.2,-39.45 c -44.4,-0.68 -86.7,-19.42 -118,-52.25 -66.6,-69.69 -66.6,-182.66 0,-252.35 66.5,-69.68 174.4,-69.68 240.9,0 32,33.47 50,78.86 50,126.18 0,47.33 -18,92.72 -50,126.18 -32.5,34.11 -76.9,52.95 -122.9,52.24 z m -866.3,-39.42 c -44.3,-0.67 -86.7,-19.42 -118,-52.25 -32,-33.46 -49.9,-78.85 -49.9,-126.18 0,-47.33 17.9,-92.71 49.9,-126.18 31.9,-33.46 75.3,-52.26 120.5,-52.26 45.2,0 88.5,18.8 120.5,52.26 31.9,33.47 49.9,78.85 49.9,126.18 0,47.33 -18,92.72 -49.9,126.18 -32.6,34.11 -77,52.96 -123,52.25 z m -866.3,-39.46 c -44.3,-0.68 -86.7,-19.41 -118,-52.24 -66.5,-69.68 -66.5,-182.66 0,-252.34 32,-33.48 75.3,-52.28 120.5,-52.28 45.2,0 88.6,18.8 120.5,52.28 32,33.46 49.9,78.85 49.9,126.18 0,47.32 -17.9,92.72 -49.9,126.18 -32.6,34.1 -76.9,52.94 -123,52.23 z m -866.3,-39.42 c -44.3,-0.67 -86.6,-19.42 -118,-52.25 -31.9,-33.46 -49.9,-78.85 -49.9,-126.18 0,-47.33 18,-92.72 49.9,-126.18 32,-33.47 75.3,-52.27 120.5,-52.27 45.2,0 88.6,18.8 120.5,52.27 66.6,69.68 66.6,182.66 0,252.35 -32.6,34.11 -76.9,52.96 -123,52.26 z m 3013.2,-315.53 c -44.4,-0.67 -86.7,-19.41 -118,-52.25 -32,-33.46 -50,-78.85 -50,-126.18 0,-47.33 18,-92.71 50,-126.18 31.9,-33.46 75.3,-52.27 120.5,-52.27 45.2,0 88.5,18.81 120.5,52.27 31.9,33.47 49.9,78.85 49.9,126.18 0,47.33 -18,92.72 -49.9,126.18 -32.6,34.11 -77,52.96 -123,52.25 z m -866.3,-39.43 c -44.3,-0.68 -86.7,-19.43 -118,-52.27 -66.5,-69.68 -66.5,-182.66 0,-252.34 66.5,-69.68 174.4,-69.68 241,0 31.9,33.46 49.9,78.85 49.9,126.18 0,47.32 -18,92.72 -49.9,126.18 -32.6,34.11 -77,52.95 -123,52.25 z m -866.3,-39.45 c -44.3,-0.68 -86.6,-19.42 -118,-52.25 -66.5,-69.68 -66.5,-182.66 0,-252.35 32,-33.46 75.3,-52.26 120.5,-52.26 45.2,0 88.6,18.8 120.5,52.26 66.6,69.69 66.6,182.67 0,252.35 -32.6,34.11 -76.9,52.95 -123,52.25 z m -866.3,-39.44 c -44.3,-0.68 -86.6,-19.42 -118,-52.24 -66.5,-69.69 -66.5,-182.67 0,-252.35 32,-33.47 75.3,-52.27 120.5,-52.27 45.2,0 88.6,18.8 120.5,52.27 32,33.46 49.9,78.86 49.9,126.18 0,47.33 -17.9,92.72 -49.9,126.18 -32.5,34.1 -76.9,52.95 -123,52.24 z m -866.2,-39.43 c -44.4,-0.67 -86.7,-19.41 -118,-52.25 -32,-33.46 -50,-78.85 -50,-126.18 0,-47.32 18,-92.71 50,-126.18 66.5,-69.68 174.4,-69.68 240.9,0 66.6,69.69 66.6,182.66 0,252.35 -32.5,34.11 -76.9,52.96 -122.9,52.26 z m 3879.4,-276.09 c -44.4,-0.68 -86.7,-19.42 -118,-52.25 -66.6,-69.69 -66.6,-182.66 0,-252.35 31.9,-33.46 75.3,-52.26 120.5,-52.26 45.2,0 88.5,18.8 120.5,52.26 66.5,69.69 66.5,182.66 0,252.35 -32.6,34.11 -77,52.95 -123,52.25 z m -866.3,-39.43 c -44.3,-0.68 -86.7,-19.42 -118,-52.25 -32,-33.47 -49.9,-78.86 -49.9,-126.18 0,-47.33 17.9,-92.72 49.9,-126.19 31.9,-33.46 75.3,-52.26 120.5,-52.26 45.2,0 88.5,18.8 120.5,52.26 31.9,33.47 49.9,78.86 49.9,126.19 0,47.32 -18,92.71 -49.9,126.18 -32.6,34.1 -76.9,52.95 -123,52.25 z m -866.3,-39.45 c -44.3,-0.69 -86.6,-19.43 -118,-52.25 -66.5,-69.69 -66.5,-182.66 0,-252.35 32,-33.47 75.3,-52.27 120.5,-52.27 45.2,0 88.6,18.8 120.5,52.27 66.6,69.69 66.6,182.66 0,252.35 -32.6,34.1 -76.9,52.95 -123,52.25 z m -866.2,-39.44 c -44.4,-0.66 -86.7,-19.4 -118.1,-52.23 -31.9,-33.47 -49.9,-78.86 -49.9,-126.18 0,-47.33 18,-92.72 49.9,-126.18 66.6,-69.68 174.5,-69.68 241,0 66.6,69.68 66.6,182.66 0,252.34 -32.5,34.11 -76.9,52.96 -123,52.25 z m -866.3,-39.44 c -44.3,-0.68 -86.7,-19.42 -118,-52.24 -66.6,-69.68 -66.6,-182.66 0,-252.35 31.9,-33.46 75.3,-52.26 120.5,-52.26 45.2,0 88.5,18.8 120.5,52.26 31.9,33.47 49.9,78.86 49.9,126.18 0,47.33 -18,92.72 -49.9,126.19 -32.6,34.09 -77,52.94 -123,52.23 z m -866.3,-39.44 c -44.3,-0.67 -86.7,-19.41 -118,-52.23 -32,-33.47 -49.9,-78.86 -49.9,-126.18 0,-47.33 17.9,-92.72 49.9,-126.19 32,-33.46 75.3,-52.26 120.5,-52.26 45.2,0 88.5,18.8 120.5,52.26 66.5,69.69 66.5,182.67 0,252.35 -32.6,34.11 -76.9,52.96 -123,52.25 z m 3879.4,-276.07 c -44.3,-0.68 -86.7,-19.43 -118,-52.26 -32,-33.46 -49.9,-78.85 -49.9,-126.18 0,-47.33 17.9,-92.72 49.9,-126.18 32,-33.47 75.3,-52.26 120.5,-52.26 45.2,0 88.5,18.79 120.5,52.26 32,33.46 49.9,78.85 49.9,126.18 0,47.33 -17.9,92.72 -49.9,126.18 -32.6,34.11 -76.9,52.96 -123,52.26 z m -866.3,-39.45 c -44.3,-0.67 -86.6,-19.41 -118,-52.24 -31.9,-33.47 -49.9,-78.85 -49.9,-126.18 0,-47.33 18,-92.72 49.9,-126.18 32,-33.47 75.3,-52.27 120.5,-52.27 45.2,0 88.6,18.8 120.5,52.27 66.6,69.68 66.6,182.66 0,252.34 -32.5,34.11 -76.9,52.96 -123,52.26 z m -866.3,-39.44 c -44.3,-0.68 -86.6,-19.42 -117.9,-52.25 -66.6,-69.68 -66.6,-182.66 0,-252.35 66.5,-69.67 174.4,-69.67 240.9,0 66.6,69.69 66.6,182.67 0,252.35 -32.5,34.11 -76.9,52.96 -123,52.25 z m -866.2,-39.43 c -44.3,-0.68 -86.7,-19.42 -118,-52.25 -66.6,-69.69 -66.6,-182.66 0,-252.35 31.9,-33.47 75.3,-52.27 120.5,-52.27 45.2,0 88.5,18.8 120.5,52.27 66.5,69.69 66.5,182.66 0,252.35 -32.6,34.11 -77,52.95 -123,52.25 z m -866.3,-39.45 c -44.3,-0.68 -86.6,-19.42 -118,-52.23 -32,-33.47 -49.9,-78.86 -49.9,-126.19 0,-47.33 17.9,-92.71 49.9,-126.18 32,-33.47 75.3,-52.27 120.5,-52.27 45.2,0 88.6,18.8 120.5,52.27 32,33.47 49.9,78.85 49.9,126.18 0,47.33 -17.9,92.72 -49.9,126.19 -32.5,34.09 -76.9,52.94 -123,52.23 z m 3879.4,-276.08 c -44.3,-0.67 -86.6,-19.42 -118,-52.25 -32,-33.46 -49.9,-78.85 -49.9,-126.18 0,-47.33 17.9,-92.72 49.9,-126.18 66.5,-69.68 174.4,-69.68 241,0 31.9,33.46 49.9,78.85 49.9,126.18 0,47.33 -18,92.72 -49.9,126.18 -32.6,34.11 -77,52.96 -123,52.25 z m -866.3,-39.45 c -44.3,-0.68 -86.6,-19.41 -118,-52.23 -31.9,-33.47 -49.9,-78.86 -49.9,-126.18 0,-47.33 18,-92.72 49.9,-126.18 32,-33.47 75.3,-52.27 120.5,-52.27 45.2,0 88.6,18.8 120.5,52.27 32,33.46 49.9,78.85 49.9,126.18 0,47.32 -17.9,92.71 -49.9,126.18 -32.5,34.1 -76.9,52.94 -123,52.23 z M 39282,6041.5 c -44.4,-0.68 -86.7,-19.41 -118,-52.23 -32,-33.47 -50,-78.86 -50,-126.19 0,-47.33 18,-92.71 50,-126.18 31.9,-33.47 75.3,-52.26 120.5,-52.26 45.1,0 88.5,18.79 120.5,52.26 66.5,69.69 66.5,182.66 0,252.35 -32.6,34.11 -77,52.95 -123,52.25 z m -866.3,-39.43 c -44.3,-0.68 -86.7,-19.43 -118,-52.25 -66.6,-69.69 -66.6,-182.67 0,-252.36 31.9,-33.46 75.3,-52.26 120.5,-52.26 45.2,0 88.5,18.8 120.5,52.26 66.5,69.69 66.5,182.67 0,252.36 -32.6,34.1 -77,52.95 -123,52.25 z m -866.3,-39.44 c -44.3,-0.67 -86.6,-19.42 -118,-52.25 -32,-33.46 -49.9,-78.85 -49.9,-126.18 0,-47.33 17.9,-92.72 49.9,-126.18 32,-33.47 75.3,-52.27 120.5,-52.27 45.2,0 88.5,18.8 120.5,52.27 32,33.46 49.9,78.85 49.9,126.18 0,47.33 -17.9,92.72 -49.9,126.18 -32.6,34.11 -76.9,52.96 -123,52.25 z m 3013.1,-315.52 c -44.3,-0.68 -86.6,-19.43 -118,-52.25 -31.9,-33.47 -49.9,-78.86 -49.9,-126.19 0,-47.32 18,-92.71 49.9,-126.18 32,-33.46 75.3,-52.26 120.5,-52.26 45.2,0 88.6,18.8 120.5,52.26 66.6,69.69 66.6,182.66 0,252.35 -32.5,34.11 -76.9,52.96 -123,52.27 z m -866.2,-39.45 c -44.4,-0.68 -86.7,-19.42 -118,-52.24 -32,-33.46 -49.9,-78.85 -49.9,-126.18 0,-47.33 17.9,-92.72 49.9,-126.18 66.5,-69.68 174.4,-69.68 241,0 31.9,33.46 49.9,78.85 49.9,126.18 0,47.33 -18,92.72 -49.9,126.18 -32.6,34.1 -77,52.94 -123,52.24 z m -866.3,-39.44 c -44.3,-0.67 -86.7,-19.41 -118,-52.23 -32,-33.47 -49.9,-78.86 -49.9,-126.19 0,-47.32 17.9,-92.71 49.9,-126.17 31.9,-33.47 75.3,-52.27 120.5,-52.27 45.2,0 88.5,18.8 120.5,52.27 66.5,69.68 66.5,182.66 0,252.34 -32.6,34.11 -76.9,52.96 -123,52.25 z m -866.3,-39.43 c -44.3,-0.68 -86.6,-19.42 -118,-52.25 -31.9,-33.47 -49.9,-78.86 -49.9,-126.18 0,-47.33 18,-92.72 49.9,-126.18 32,-33.47 75.3,-52.27 120.5,-52.27 45.2,0 88.6,18.8 120.5,52.27 66.6,69.68 66.6,182.66 0,252.34 -32.6,34.11 -76.9,52.96 -123,52.26 z m 3013.1,-315.54 c -44.3,-0.68 -86.6,-19.41 -118,-52.24 -66.5,-69.68 -66.5,-182.66 0,-252.35 32,-33.46 75.3,-52.27 120.5,-52.27 45.2,0 88.6,18.81 120.5,52.27 32,33.47 50,78.86 50,126.18 0,47.33 -18,92.72 -50,126.19 -32.5,34.1 -76.9,52.94 -122.9,52.23 z m -866.2,-39.42 c -44.4,-0.68 -86.7,-19.42 -118,-52.25 -32,-33.47 -50,-78.86 -50,-126.18 0,-47.33 18,-92.72 50,-126.19 31.9,-33.46 75.3,-52.26 120.5,-52.26 45.2,0 88.5,18.8 120.5,52.26 66.5,69.69 66.5,182.67 0,252.35 -32.6,34.12 -77,52.97 -123,52.27 z m -866.3,-39.45 c -44.3,-0.67 -86.7,-19.41 -118,-52.24 -32,-33.46 -49.9,-78.85 -49.9,-126.18 0,-47.32 17.9,-92.71 49.9,-126.18 32,-33.46 75.3,-52.26 120.5,-52.26 45.2,0 88.5,18.8 120.5,52.26 32,33.47 49.9,78.86 49.9,126.18 0,47.33 -17.9,92.72 -49.9,126.18 -32.6,34.11 -76.9,52.95 -123,52.24 z m -866.3,-39.43 c -44.3,-0.67 -86.6,-19.41 -118,-52.24 -31.9,-33.46 -49.9,-78.85 -49.9,-126.19 0,-47.33 18,-92.72 49.9,-126.19 32,-33.46 75.3,-52.26 120.5,-52.26 45.2,0 88.6,18.8 120.5,52.26 66.6,69.69 66.6,182.67 0,252.35 -32.6,34.11 -76.9,52.95 -123,52.25 z m 2146.9,-354.98 c -44.3,-0.67 -86.7,-19.41 -118,-52.24 -66.6,-69.68 -66.6,-182.66 0,-252.34 31.9,-33.47 75.3,-52.27 120.5,-52.27 45.2,0 88.5,18.8 120.5,52.27 31.9,33.46 49.9,78.85 49.9,126.18 0,47.33 -18,92.72 -49.9,126.18 -32.6,34.1 -77,52.95 -123,52.24 z m -866.3,-39.42 c -44.3,-0.67 -86.7,-19.42 -118,-52.25 -32,-33.46 -49.9,-78.85 -49.9,-126.18 0,-47.33 17.9,-92.72 49.9,-126.18 66.5,-69.68 174.4,-69.68 241,0 66.5,69.69 66.5,182.66 0,252.35 -32.6,34.1 -76.9,52.96 -123,52.26 z m 1591.4,-3.79 c -35.4,-58.39 -35.4,-132.95 0,-191.34 z m -2457.7,-35.65 c -44.3,-0.68 -86.6,-19.43 -118,-52.25 -66.5,-69.69 -66.5,-182.67 0,-252.36 32,-33.46 75.3,-52.27 120.5,-52.27 45.2,0 88.6,18.81 120.5,52.27 66.6,69.69 66.6,182.67 0,252.36 -32.5,34.1 -76.9,52.95 -122.9,52.25 z m 2146.9,-354.97 c -44.3,-0.67 -86.7,-19.41 -118,-52.25 -66.6,-69.68 -66.6,-182.66 0,-252.35 66.5,-69.67 174.4,-69.67 241,0 66.5,69.69 66.5,182.67 0,252.35 -32.6,34.11 -77,52.95 -123,52.25 z m -866.3,-39.44 c -44.3,-0.68 -86.6,-19.42 -118,-52.24 -66.5,-69.69 -66.5,-182.66 0,-252.35 32,-33.47 75.3,-52.27 120.5,-52.27 45.2,0 88.5,18.8 120.5,52.27 32,33.46 49.9,78.85 49.9,126.18 0,47.33 -17.9,92.72 -49.9,126.18 -32.6,34.1 -76.9,52.94 -123,52.24 z m -866.3,-39.44 c -44.3,-0.67 -86.6,-19.41 -118,-52.24 -31.9,-33.46 -49.9,-78.85 -49.9,-126.18 0,-47.32 18,-92.71 49.9,-126.18 32,-33.46 75.3,-52.26 120.5,-52.26 45.2,0 88.6,18.8 120.5,52.26 66.6,69.69 66.6,182.66 0,252.35 -32.5,34.11 -76.9,52.95 -123,52.25 z M 41250,3833.32 c -5.1,-4.13 -9.9,-8.56 -14.5,-13.27 -66.6,-69.69 -66.6,-182.66 0,-252.35 4.6,-4.75 9.4,-9.24 14.5,-13.41 z m -762.8,-0.46 c -44.3,-0.68 -86.6,-19.42 -118,-52.25 -31.9,-33.46 -49.9,-78.85 -49.9,-126.18 0,-47.32 18,-92.72 49.9,-126.18 32,-33.46 75.3,-52.27 120.5,-52.27 45.2,0 88.6,18.81 120.5,52.27 32,33.46 49.9,78.86 49.9,126.18 0,47.33 -17.9,92.72 -49.9,126.18 -32.6,34.11 -76.9,52.96 -123,52.25 z m -866.3,-39.44 c -44.3,-0.68 -86.6,-19.42 -118,-52.24 -31.9,-33.47 -49.9,-78.86 -49.9,-126.18 0,-47.33 18,-92.72 49.9,-126.18 32,-33.47 75.3,-52.28 120.5,-52.28 45.2,0 88.6,18.81 120.5,52.28 32,33.46 50,78.85 50,126.18 0,47.32 -18,92.71 -50,126.18 -32.5,34.1 -76.9,52.95 -122.9,52.24 z m 1280.6,-394.4 c -44.3,-0.68 -86.6,-19.42 -118,-52.25 -66.5,-69.68 -66.5,-182.66 0,-252.35 32,-33.47 75.3,-52.27 120.5,-52.27 45.2,0 88.6,18.8 120.5,52.27 32,33.47 49.9,78.86 49.9,126.19 0,47.32 -17.9,92.71 -49.9,126.18 -32.5,34.1 -76.9,52.95 -123,52.25 z m -866.2,-39.43 c -44.4,-0.68 -86.7,-19.42 -118.1,-52.25 -31.9,-33.47 -49.9,-78.86 -49.9,-126.18 0,-47.33 18,-92.72 49.9,-126.19 32,-33.47 75.3,-52.27 120.5,-52.27 45.2,0 88.6,18.8 120.5,52.27 66.6,69.69 66.6,182.67 0,252.35 -32.5,34.11 -76.9,52.96 -122.9,52.25 z M 41250,2950.21 c -19.5,-8.91 -37.2,-21.55 -52.2,-37.26 -31.9,-33.47 -49.9,-78.86 -49.9,-126.18 0,-47.33 18,-92.72 49.9,-126.19 15.1,-15.65 32.7,-28.23 52.2,-37.09 z m -800.4,-24.46 c -44.4,-0.68 -86.7,-19.43 -118,-52.25 -32,-33.47 -50,-78.86 -50,-126.18 0,-47.33 18,-92.72 50,-126.19 31.9,-33.46 75.3,-52.26 120.5,-52.26 45.1,0 88.5,18.8 120.4,52.26 32,33.47 50,78.86 50,126.19 0,47.32 -18,92.71 -50,126.18 -32.5,34.1 -76.9,52.95 -122.9,52.25 z m 414.3,-433.84 c -44.4,-0.68 -86.7,-19.41 -118,-52.24 -32,-33.47 -50,-78.86 -50,-126.19 0,-47.33 18,-92.72 50,-126.19 31.9,-33.47 75.3,-52.26 120.5,-52.26 45.1,0 88.5,18.79 120.5,52.26 66.5,69.69 66.5,182.66 0,252.35 -32.6,34.1 -77,52.95 -123,52.25 z m 386.1,-436.94 c -34,-6.46 -65.3,-23.6 -89.8,-49.14 -32,-33.47 -49.9,-78.86 -49.9,-126.19 0,-47.32 17.9,-92.71 49.9,-126.18 24.4,-25.6 55.8,-42.8 89.8,-49.3 v 350.81"
         style="fill:#ffffff;fill-opacity:1;fill-rule:evenodd;stroke:none"
         id="path78" />
      <path
         d="M 10101.1,0 13713,3611.95 301.457,17023.5 0.0078125,16722 V 14279.2 L 492.633,14771.9 11461.4,3803.14 7658.21,0 h 2442.89"
         style="fill:url(#linearGradient84);fill-opacity:1;fill-rule:nonzero;stroke:none"
         id="path86" />
      <path
         d="M 0.0078125,2965.65 19534.3,22500 H 0.0078125 Z"
         style="fill:url(#linearGradient92);fill-opacity:1;fill-rule:nonzero;stroke:none"
         id="path94" />
      <path
         d="M 5715.43,0 9518.57,3803.14 0.0078125,13321.7 V 11354.4 L 7368.68,3985.69 3382.99,0 h 2332.44"
         style="fill:url(#linearGradient100);fill-opacity:1;fill-rule:nonzero;stroke:none"
         id="path102" />
      <path
         d="M 4194.37,7160.01 5178.04,8143.68 0.0078125,13321.7 V 11354.4 L 4194.37,7160.01"
         style="fill:url(#linearGradient108);fill-opacity:1;fill-rule:nonzero;stroke:none"
         id="path110" />
      <path
         d="M 0.0078125,7329.52 15170.5,22500 H 0.0078125 Z"
         style="fill:url(#linearGradient116);fill-opacity:1;fill-rule:nonzero;stroke:none"
         id="path118" />
      <path
         d="M 5804.48,16938.4 11366.1,22500 H 8923.25 L 5613.29,19190 2303.33,22500 H 242.879 L 5804.48,16938.4"
         style="fill:url(#linearGradient124);fill-opacity:1;fill-rule:nonzero;stroke:none"
         id="path126" />
      <path
         d="M 959.539,0 3524.45,2564.89 0.0078125,6089.34 V 0 H 959.539"
         style="fill:url(#linearGradient132);fill-opacity:1;fill-rule:nonzero;stroke:none"
         id="path134" />
      <path
         d="M 0.0078125,2965.65 1561.85,4527.5 0.0078125,6089.34 Z"
         style="fill:url(#linearGradient140);fill-opacity:1;fill-rule:nonzero;stroke:none"
         id="path142" />
      <path
         d="m 9.51172,10936.9 c 44.32808,0.7 86.66018,19.4 118.00828,52.3 31.96,33.4 49.914,78.8 49.914,126.1 0,47.4 -17.954,92.8 -49.914,126.2 -33.7114,35.2 -79.9497,54 -127.5121875,51.9 v -356.1 c 3.1640675,-0.2 6.3320275,-0.4 9.5039075,-0.4 z m 451.96528,473.3 c 44.328,0.7 86.656,19.4 118.007,52.2 31.957,33.5 49.914,78.9 49.914,126.2 0,47.3 -17.957,92.7 -49.914,126.2 -66.546,69.7 -174.433,69.7 -240.98,0 -66.543,-69.7 -66.543,-182.7 0,-252.4 32.566,-34.1 76.93,-52.9 122.984,-52.2 z M 47.1758,11844 c 44.3242,0.7 86.6562,19.5 118.0042,52.3 66.547,69.7 66.547,182.6 0,252.3 -43.242,45.2 -106.2542,62.7 -165.1721875,45.8 v -344 C 15.3672,11846 31.2461,11843.8 47.1758,11844 Z m 866.2622,39.5 c 44.332,0.6 86.672,19.4 118.022,52.2 31.96,33.5 49.92,78.9 49.92,126.2 0,47.3 -17.96,92.7 -49.92,126.2 -31.956,33.4 -75.3,52.2 -120.499,52.2 -45.195,0 -88.539,-18.8 -120.496,-52.2 -66.543,-69.7 -66.543,-182.7 0,-252.4 32.562,-34.1 76.922,-52.9 122.973,-52.2 z m -414.286,433.8 c 44.321,0.7 86.645,19.4 117.993,52.3 31.96,33.4 49.914,78.8 49.914,126.1 0,47.4 -17.954,92.7 -49.914,126.2 -31.957,33.5 -75.305,52.3 -120.504,52.3 -45.2,0 -88.547,-18.8 -120.508,-52.3 -31.957,-33.5 -49.914,-78.8 -49.914,-126.2 0,-47.3 17.957,-92.7 49.914,-126.1 32.57,-34.2 76.937,-53 122.988,-52.3 z m 866.268,39.5 c 44.32,0.6 86.65,19.4 118.01,52.2 31.96,33.4 49.92,78.8 49.92,126.2 0,47.3 -17.96,92.7 -49.92,126.2 -31.97,33.4 -75.31,52.2 -120.5,52.2 -45.2,0 -88.54,-18.8 -120.5,-52.2 -66.55,-69.7 -66.55,-182.7 0,-252.4 32.57,-34.1 76.93,-52.9 122.99,-52.2 z M 84.8359,12751.1 c 44.3281,0.7 86.6601,19.5 118.0081,52.3 31.957,33.5 49.914,78.8 49.914,126.2 0,47.3 -17.957,92.7 -49.914,126.2 -53.699,56.1 -136.3987,68.3 -202.8361875,29.9 v -312.2 C 25.9414,12758.4 55.1836,12750.7 84.8359,12751.1 Z m 866.2771,39.5 c 44.328,0.7 86.657,19.4 118.007,52.2 31.96,33.5 49.92,78.9 49.92,126.2 0,47.3 -17.96,92.7 -49.92,126.2 -31.96,33.5 -75.304,52.3 -120.503,52.3 -45.199,0 -88.547,-18.8 -120.504,-52.3 -31.961,-33.5 -49.914,-78.9 -49.914,-126.2 0,-47.3 17.953,-92.7 49.914,-126.2 32.571,-34.1 76.934,-52.9 122.989,-52.2 z m 866.267,39.4 c 44.33,0.7 86.67,19.4 118.02,52.3 31.96,33.4 49.92,78.8 49.92,126.2 0,47.3 -17.96,92.7 -49.92,126.1 -31.95,33.5 -75.3,52.3 -120.5,52.3 -45.19,0 -88.54,-18.8 -120.49,-52.3 -31.96,-33.4 -49.92,-78.8 -49.92,-126.1 0,-47.4 17.96,-92.8 49.92,-126.2 32.56,-34.1 76.93,-53 122.98,-52.3 z m -1280.583,394.4 c 44.332,0.7 86.66,19.4 118.008,52.3 31.961,33.4 49.914,78.8 49.914,126.2 0,47.3 -17.953,92.7 -49.914,126.1 -66.547,69.7 -174.434,69.7 -240.981,0 -31.961,-33.4 -49.914,-78.8 -49.914,-126.1 0,-47.4 17.953,-92.8 49.914,-126.2 32.567,-34.1 76.926,-53 122.973,-52.3 z m 866.283,39.5 c 44.33,0.6 86.66,19.4 118.01,52.2 66.54,69.7 66.54,182.7 0,252.4 -31.96,33.4 -75.31,52.2 -120.5,52.2 -45.2,0 -88.54,-18.8 -120.5,-52.2 -31.96,-33.5 -49.92,-78.9 -49.92,-126.2 0,-47.4 17.96,-92.7 49.92,-126.2 32.57,-34.1 76.93,-53 122.99,-52.2 z m 866.26,39.4 c 44.34,0.7 86.67,19.4 118.02,52.3 31.96,33.4 49.92,78.8 49.92,126.1 0,47.4 -17.96,92.7 -49.92,126.2 -31.95,33.5 -75.3,52.3 -120.49,52.3 -45.2,0 -88.54,-18.8 -120.5,-52.3 -31.96,-33.5 -49.92,-78.8 -49.92,-126.2 0,-47.3 17.96,-92.7 49.92,-126.1 32.56,-34.2 76.92,-53 122.97,-52.3 z m -2146.844,355 c 44.328,0.7 86.656,19.4 118.008,52.2 31.961,33.5 49.914,78.9 49.914,126.2 0,47.3 -17.953,92.7 -49.914,126.2 -66.371,69.5 -173.8985,69.7 -240.5118125,0.4 V 13710 C 32.5156,13676.2 76.6641,13657.6 122.48,13658.3 Z m 866.277,39.4 c 44.337,0.7 86.667,19.4 118.017,52.2 31.95,33.5 49.91,78.9 49.91,126.2 0,47.4 -17.96,92.7 -49.91,126.2 -31.97,33.5 -75.31,52.3 -120.505,52.3 -45.195,0 -88.539,-18.8 -120.496,-52.3 -31.961,-33.5 -49.914,-78.8 -49.914,-126.2 0,-47.3 17.953,-92.7 49.914,-126.2 32.566,-34.1 76.93,-52.9 122.984,-52.2 z m 866.277,39.4 c 44.33,0.7 86.66,19.5 118.01,52.3 66.55,69.7 66.55,182.7 0,252.3 -31.95,33.5 -75.3,52.3 -120.49,52.3 -45.2,0 -88.55,-18.8 -120.5,-52.3 -31.97,-33.4 -49.93,-78.8 -49.93,-126.1 0,-47.4 17.96,-92.8 49.93,-126.2 32.57,-34.1 76.93,-53 122.98,-52.3 z m 866.27,39.5 c 44.33,0.7 86.67,19.4 118.02,52.2 31.96,33.5 49.92,78.9 49.92,126.2 0,47.3 -17.96,92.7 -49.92,126.2 -66.55,69.7 -174.43,69.7 -240.98,0 -31.96,-33.5 -49.91,-78.9 -49.91,-126.2 0,-47.3 17.95,-92.7 49.91,-126.2 32.57,-34.1 76.93,-52.9 122.99,-52.2 z m -2146.847,354.9 c 44.332,0.7 86.664,19.5 118.007,52.3 66.543,69.7 66.543,182.7 0,252.4 -31.957,33.4 -75.3,52.2 -120.496,52.2 -45.195,0 -88.539,-18.8 -120.5,-52.2 -31.957,-33.5 -49.914,-78.9 -49.914,-126.2 0,-47.4 17.957,-92.7 49.914,-126.2 32.571,-34.1 76.934,-53 122.989,-52.3 z m 866.267,39.5 c 44.33,0.6 86.67,19.4 118.02,52.2 31.96,33.5 49.92,78.9 49.92,126.2 0,47.3 -17.96,92.7 -49.92,126.2 -66.55,69.7 -174.43,69.7 -240.98,0 -31.96,-33.5 -49.91,-78.9 -49.91,-126.2 0,-47.3 17.95,-92.7 49.91,-126.2 32.57,-34.1 76.93,-52.9 122.99,-52.2 z m 866.28,39.4 c 44.33,0.7 86.66,19.4 118.01,52.3 66.54,69.7 66.54,182.6 0,252.3 -31.96,33.5 -75.31,52.3 -120.5,52.3 -45.2,0 -88.54,-18.8 -120.5,-52.3 -31.96,-33.4 -49.92,-78.8 -49.92,-126.2 0,-47.3 17.96,-92.7 49.92,-126.2 32.57,-34.1 76.93,-52.9 122.99,-52.2 z m 866.28,39.5 c 44.33,0.6 86.66,19.4 118,52.2 31.97,33.5 49.92,78.9 49.92,126.2 0,47.3 -17.95,92.7 -49.92,126.2 -31.95,33.4 -75.3,52.2 -120.49,52.2 -45.2,0 -88.54,-18.8 -120.5,-52.2 -66.54,-69.7 -66.54,-182.7 0,-252.4 32.57,-34.1 76.93,-52.9 122.99,-52.2 z m -3013.144,315.5 c 44.336,0.7 86.672,19.4 118.024,52.2 31.961,33.5 49.914,78.9 49.914,126.2 0,47.3 -17.953,92.7 -49.914,126.2 -66.547,69.7 -174.434,69.7 -240.9808,0 -15.9765,-16.7 -28.61717,-36.6 -37.1796687,-58.5 v -134.9 c 8.5156287,-22.1 21.1523687,-42.1 37.1640687,-59 32.5664,-34.1 76.9334,-52.9 122.9884,-52.2 z m 866.284,39.4 c 44.33,0.7 86.66,19.5 118.01,52.3 66.54,69.7 66.54,182.6 0,252.3 -66.55,69.7 -174.438,69.7 -240.989,0 -31.957,-33.4 -49.914,-78.8 -49.914,-126.2 0,-47.3 17.957,-92.7 49.914,-126.1 32.57,-34.1 76.937,-53 122.989,-52.3 z m 866.26,39.4 c 44.34,0.7 86.67,19.5 118.02,52.3 31.96,33.5 49.92,78.9 49.92,126.2 0,47.3 -17.96,92.7 -49.92,126.2 -31.95,33.4 -75.3,52.2 -120.49,52.2 -45.2,0 -88.54,-18.8 -120.5,-52.2 -31.96,-33.5 -49.92,-78.9 -49.92,-126.2 0,-47.3 17.96,-92.7 49.92,-126.2 32.57,-34.1 76.93,-53 122.98,-52.3 z m 866.3,39.5 c 44.32,0.7 86.65,19.4 118,52.2 66.55,69.7 66.55,182.7 0,252.4 -31.96,33.5 -75.3,52.3 -120.5,52.3 -45.2,0 -88.55,-18.8 -120.51,-52.3 -31.96,-33.5 -49.91,-78.9 -49.91,-126.2 0,-47.3 17.95,-92.7 49.91,-126.2 32.57,-34.1 76.94,-52.9 122.99,-52.2 z m 866.26,39.4 c 44.33,0.7 86.67,19.5 118.02,52.3 31.96,33.4 49.92,78.8 49.92,126.2 0,47.3 -17.96,92.7 -49.92,126.1 -31.96,33.5 -75.3,52.3 -120.49,52.3 -45.2,0 -88.54,-18.8 -120.5,-52.3 -66.55,-69.6 -66.55,-182.6 0,-252.3 32.56,-34.1 76.93,-53 122.98,-52.3 z m -3013.139,315.6 c 44.332,0.6 86.672,19.4 118.024,52.2 31.957,33.5 49.914,78.9 49.914,126.2 0,47.3 -17.957,92.7 -49.914,126.2 -31.961,33.4 -75.305,52.2 -120.5,52.2 -45.196,0 -88.54,-18.8 -120.497,-52.2 -31.96,-33.5 -49.914,-78.9 -49.914,-126.2 0,-47.3 17.954,-92.7 49.914,-126.2 32.567,-34.1 76.934,-52.9 122.989,-52.2 z m 866.279,39.4 c 44.33,0.7 86.66,19.4 118.01,52.3 66.54,69.6 66.54,182.6 0,252.3 -66.55,69.7 -174.44,69.7 -240.98,0 -31.96,-33.5 -49.92,-78.8 -49.92,-126.2 0,-47.3 17.96,-92.7 49.92,-126.2 32.57,-34.1 76.93,-52.9 122.98,-52.2 z m 866.28,39.4 c 44.33,0.7 86.66,19.5 118.01,52.3 66.54,69.7 66.54,182.7 0,252.3 -31.96,33.5 -75.31,52.3 -120.5,52.3 -45.2,0 -88.54,-18.8 -120.5,-52.3 -66.54,-69.6 -66.54,-182.6 0,-252.3 32.57,-34.1 76.94,-53 122.99,-52.3 z m 866.28,39.5 c 44.33,0.7 86.66,19.4 118,52.2 66.55,69.7 66.55,182.7 0,252.4 -31.95,33.4 -75.3,52.2 -120.49,52.2 -45.2,0 -88.54,-18.8 -120.5,-52.2 -31.96,-33.5 -49.92,-78.9 -49.92,-126.2 0,-47.3 17.96,-92.7 49.92,-126.2 32.57,-34.1 76.94,-52.9 122.99,-52.2 z m 866.26,39.4 c 44.34,0.7 86.67,19.4 118.03,52.3 31.95,33.4 49.91,78.8 49.91,126.1 0,47.4 -17.96,92.8 -49.91,126.2 -66.55,69.7 -174.44,69.7 -240.99,0 -66.54,-69.7 -66.54,-182.6 0,-252.3 32.56,-34.1 76.92,-53 122.98,-52.3 z m -3879.4,276.1 c 44.332,0.7 86.668,19.4 118.02,52.3 66.543,69.6 66.543,182.6 0,252.3 -31.957,33.5 -75.301,52.3 -120.496,52.3 -45.196,0 -88.539,-18.8 -120.5002,-52.3 -66.54302,-69.7 -66.54302,-182.7 0,-252.3 32.5702,-34.2 76.9332,-53 122.9882,-52.3 z m 866.26,39.4 c 44.34,0.7 86.69,19.4 118.04,52.3 31.96,33.4 49.92,78.8 49.92,126.2 0,47.3 -17.96,92.7 -49.92,126.1 -31.96,33.5 -75.3,52.3 -120.5,52.3 -45.19,0 -88.538,-18.8 -120.495,-52.3 -31.961,-33.4 -49.914,-78.8 -49.914,-126.1 0,-47.4 17.953,-92.8 49.914,-126.2 32.563,-34.1 76.925,-53 122.975,-52.3 z m 866.31,39.5 c 44.32,0.7 86.65,19.4 118,52.2 66.54,69.7 66.54,182.7 0,252.4 -31.96,33.4 -75.31,52.2 -120.5,52.2 -45.2,0 -88.54,-18.8 -120.5,-52.2 -66.54,-69.7 -66.54,-182.7 0,-252.4 32.57,-34.1 76.93,-52.9 122.99,-52.2 z m 866.25,39.4 c 44.33,0.7 86.67,19.4 118.02,52.3 31.97,33.4 49.92,78.8 49.92,126.1 0,47.4 -17.95,92.7 -49.92,126.2 -66.54,69.7 -174.43,69.7 -240.98,0 -66.54,-69.7 -66.54,-182.6 0,-252.3 32.57,-34.1 76.93,-53 122.98,-52.3 z m 866.28,39.5 c 44.33,0.6 86.66,19.4 118.01,52.2 66.54,69.7 66.54,182.7 0,252.3 -31.96,33.5 -75.3,52.3 -120.5,52.3 -45.2,0 -88.54,-18.8 -120.5,-52.3 -31.96,-33.4 -49.91,-78.8 -49.91,-126.1 0,-47.4 17.95,-92.8 49.91,-126.2 32.57,-34.1 76.93,-53 122.98,-52.2 z m 866.28,39.4 c 44.33,0.7 86.66,19.4 118.01,52.2 31.96,33.5 49.92,78.9 49.92,126.2 0,47.3 -17.96,92.7 -49.92,126.2 -31.96,33.5 -75.3,52.3 -120.5,52.3 -45.19,0 -88.54,-18.8 -120.5,-52.3 -66.54,-69.7 -66.54,-182.7 0,-252.4 32.57,-34.1 76.93,-52.9 122.99,-52.2 z m -3879.403,276.1 c 44.328,0.7 86.66,19.4 118.008,52.2 31.957,33.5 49.914,78.9 49.914,126.2 0,47.3 -17.957,92.7 -49.914,126.2 -31.961,33.5 -75.305,52.3 -120.5,52.3 -45.196,0 -88.539,-18.8 -120.496,-52.3 -31.961,-33.5 -49.914,-78.9 -49.914,-126.2 0,-47.3 17.953,-92.7 49.914,-126.2 32.566,-34.1 76.933,-52.9 122.988,-52.2 z m 866.263,39.4 c 44.33,0.7 86.67,19.4 118.02,52.3 31.96,33.4 49.92,78.8 49.92,126.1 0,47.4 -17.96,92.8 -49.92,126.2 -31.95,33.5 -75.3,52.3 -120.49,52.3 -45.2,0 -88.54,-18.8 -120.5,-52.3 -66.55,-69.7 -66.55,-182.6 0,-252.3 32.56,-34.1 76.92,-53 122.97,-52.3 z m 866.3,39.5 c 44.32,0.6 86.64,19.4 117.99,52.2 66.54,69.7 66.54,182.7 0,252.4 -66.55,69.6 -174.44,69.6 -240.98,0 -66.55,-69.7 -66.55,-182.7 0,-252.4 32.56,-34.1 76.93,-52.9 122.99,-52.2 z m 866.26,39.4 c 44.33,0.7 86.66,19.4 118.01,52.2 66.54,69.7 66.54,182.7 0,252.4 -31.96,33.5 -75.31,52.3 -120.5,52.3 -45.2,0 -88.54,-18.8 -120.5,-52.3 -66.54,-69.7 -66.54,-182.7 0,-252.4 32.57,-34.1 76.94,-52.9 122.99,-52.2 z m 866.28,39.4 c 44.32,0.7 86.65,19.5 117.99,52.3 31.96,33.4 49.91,78.8 49.91,126.2 0,47.3 -17.95,92.7 -49.91,126.1 -31.96,33.5 -75.3,52.3 -120.5,52.3 -45.2,0 -88.55,-18.8 -120.51,-52.3 -31.96,-33.4 -49.91,-78.8 -49.91,-126.1 0,-47.4 17.95,-92.8 49.91,-126.2 32.57,-34.1 76.94,-53 122.99,-52.3 z m -3879.42,276.1 c 44.333,0.7 86.672,19.4 118.024,52.3 31.957,33.4 49.914,78.8 49.914,126.2 0,47.3 -17.957,92.7 -49.914,126.1 -66.551,69.7 -174.438,69.7 -240.984,0 -31.9575,-33.4 -49.9145,-78.8 -49.9145,-126.1 0,-47.4 17.957,-92.8 49.9145,-126.2 32.57,-34.1 76.933,-53 122.988,-52.3 z m 866.29,39.5 c 44.32,0.6 86.65,19.4 118,52.2 31.96,33.5 49.91,78.9 49.91,126.2 0,47.3 -17.95,92.7 -49.91,126.2 -31.96,33.4 -75.31,52.2 -120.5,52.2 -45.2,0 -88.54,-18.8 -120.5,-52.2 -31.957,-33.5 -49.915,-78.9 -49.915,-126.2 0,-47.3 17.958,-92.7 49.915,-126.2 32.57,-34.1 76.94,-52.9 122.99,-52.2 z m 866.27,39.4 c 44.33,0.7 86.66,19.4 118.01,52.2 31.96,33.5 49.91,78.9 49.91,126.2 0,47.3 -17.95,92.7 -49.91,126.2 -31.96,33.5 -75.31,52.3 -120.5,52.3 -45.2,0 -88.54,-18.8 -120.5,-52.3 -66.54,-69.7 -66.54,-182.7 0,-252.3 32.57,-34.2 76.93,-53 122.99,-52.3 z m 866.28,39.4 c 44.33,0.7 86.66,19.5 118,52.3 66.55,69.7 66.55,182.6 0,252.3 -31.95,33.5 -75.3,52.3 -120.49,52.3 -45.2,0 -88.54,-18.8 -120.5,-52.3 -66.54,-69.7 -66.54,-182.6 0,-252.3 32.57,-34.1 76.93,-53 122.99,-52.3 z m 866.26,39.5 c 44.34,0.6 86.67,19.4 118.03,52.2 31.95,33.5 49.91,78.9 49.91,126.2 0,47.3 -17.96,92.7 -49.91,126.2 -31.97,33.5 -75.31,52.3 -120.51,52.3 -45.2,0 -88.55,-18.8 -120.51,-52.3 -31.96,-33.5 -49.91,-78.9 -49.91,-126.2 0,-47.3 17.95,-92.7 49.91,-126.2 32.57,-34.1 76.94,-52.9 122.99,-52.2 z m -3013.123,315.5 c 44.328,0.7 86.66,19.4 118.008,52.2 31.961,33.5 49.914,78.9 49.914,126.2 0,47.4 -17.953,92.7 -49.914,126.2 -31.957,33.5 -75.301,52.3 -120.5,52.3 -45.195,0 -88.539,-18.8 -120.496,-52.3 -66.543,-69.7 -66.543,-182.7 0,-252.3 32.566,-34.1 76.933,-53 122.988,-52.3 z m 866.283,39.4 c 44.32,0.7 86.64,19.5 117.99,52.3 31.96,33.4 49.91,78.8 49.91,126.2 0,47.3 -17.95,92.7 -49.91,126.1 -66.55,69.7 -174.43,69.7 -240.98,0 -31.96,-33.4 -49.92,-78.8 -49.92,-126.1 0,-47.4 17.96,-92.8 49.92,-126.2 32.57,-34.1 76.93,-53 122.99,-52.3 z m 866.26,39.5 c 44.33,0.7 86.66,19.4 118.01,52.2 31.96,33.5 49.91,78.9 49.91,126.2 0,47.3 -17.95,92.7 -49.91,126.2 -31.96,33.4 -75.3,52.2 -120.5,52.2 -45.19,0 -88.54,-18.8 -120.5,-52.2 -66.54,-69.7 -66.54,-182.7 0,-252.4 32.57,-34.1 76.94,-52.9 122.99,-52.2 z m 866.28,39.4 c 44.33,0.7 86.66,19.4 118.01,52.3 31.96,33.4 49.91,78.8 49.91,126.1 0,47.4 -17.95,92.8 -49.91,126.2 -31.96,33.5 -75.31,52.3 -120.5,52.3 -45.2,0 -88.54,-18.8 -120.5,-52.3 -66.54,-69.7 -66.54,-182.6 0,-252.3 32.57,-34.1 76.94,-53 122.99,-52.3 z m -3013.124,315.6 c 44.328,0.6 86.657,19.4 118.008,52.2 66.543,69.7 66.543,182.7 0,252.3 -31.961,33.5 -75.309,52.3 -120.508,52.3 -45.199,0 -88.547,-18.8 -120.504,-52.3 -31.961,-33.4 -49.914,-78.8 -49.914,-126.1 0,-47.4 17.953,-92.8 49.914,-126.2 32.571,-34.1 76.934,-53 122.989,-52.3 z m 866.264,39.4 c 44.33,0.6 86.67,19.4 118.02,52.2 31.96,33.5 49.92,78.9 49.92,126.2 0,47.3 -17.96,92.7 -49.92,126.2 -31.96,33.5 -75.3,52.3 -120.49,52.3 -45.2,0 -88.54,-18.8 -120.5,-52.3 -66.548,-69.7 -66.548,-182.7 0,-252.4 32.56,-34.1 76.93,-52.9 122.98,-52.2 z m 866.28,39.4 c 44.33,0.7 86.66,19.4 118.01,52.3 31.96,33.4 49.91,78.8 49.91,126.1 0,47.4 -17.95,92.8 -49.91,126.2 -31.96,33.5 -75.3,52.3 -120.5,52.3 -45.2,0 -88.54,-18.8 -120.5,-52.3 -31.96,-33.4 -49.91,-78.8 -49.91,-126.2 0,-47.3 17.95,-92.7 49.91,-126.1 32.57,-34.1 76.94,-53 122.99,-52.3 z m 866.26,39.5 c 44.34,0.6 86.67,19.4 118.03,52.2 31.96,33.5 49.92,78.8 49.92,126.2 0,47.3 -17.96,92.7 -49.92,126.2 -31.96,33.4 -75.31,52.2 -120.5,52.2 -45.2,0 -88.54,-18.8 -120.5,-52.2 -66.54,-69.7 -66.54,-182.7 0,-252.4 32.56,-34.1 76.92,-52.9 122.97,-52.2 z M 725.117,17760 c 44.328,0.7 86.66,19.4 118.008,52.3 66.543,69.7 66.543,182.6 0,252.3 -31.957,33.5 -75.301,52.3 -120.496,52.3 -45.195,0 -88.539,-18.8 -120.5,-52.3 -31.957,-33.5 -49.914,-78.8 -49.914,-126.2 0,-47.3 17.957,-92.7 49.914,-126.1 32.57,-34.2 76.937,-53 122.988,-52.3 z m 866.263,39.4 c 44.34,0.7 86.67,19.5 118.03,52.3 31.95,33.5 49.91,78.9 49.91,126.2 0,47.3 -17.96,92.7 -49.91,126.2 -66.55,69.6 -174.44,69.6 -240.99,0 -66.54,-69.7 -66.54,-182.7 0,-252.4 32.56,-34.1 76.92,-52.9 122.98,-52.3 z m -1591.3721875,3.8 c 35.4140875,58.4 35.4140875,133 0,191.4 z M 2457.66,17838.9 c 44.33,0.7 86.66,19.4 118.01,52.2 66.54,69.7 66.54,182.7 0,252.4 -31.96,33.5 -75.31,52.3 -120.51,52.3 -45.2,0 -88.54,-18.8 -120.5,-52.3 -66.54,-69.7 -66.54,-182.7 0,-252.4 32.57,-34.1 76.93,-52.9 122.99,-52.2 z m -2146.859,355 c 44.336,0.6 86.672,19.4 118.023,52.2 66.543,69.7 66.543,182.7 0,252.4 -66.547,69.6 -174.433,69.6 -240.98,0 -66.543,-69.7 -66.543,-182.7 0,-252.4 32.562,-34.1 76.922,-52.9 122.972,-52.2 z m 866.279,39.4 c 44.33,0.7 86.66,19.4 118.01,52.2 66.54,69.7 66.54,182.7 0,252.4 -31.96,33.5 -75.3,52.3 -120.5,52.3 -45.2,0 -88.54,-18.8 -120.5,-52.3 -31.96,-33.5 -49.91,-78.9 -49.91,-126.2 0,-47.3 17.95,-92.7 49.91,-126.2 32.57,-34.1 76.93,-52.9 122.98,-52.2 z m 866.28,39.4 c 44.33,0.7 86.66,19.5 118.01,52.3 31.96,33.4 49.91,78.8 49.91,126.2 0,47.3 -17.95,92.7 -49.91,126.1 -31.96,33.5 -75.3,52.3 -120.5,52.3 -45.19,0 -88.54,-18.8 -120.5,-52.3 -66.54,-69.6 -66.54,-182.6 0,-252.3 32.57,-34.1 76.93,-53 122.99,-52.3 z m -2043.3521875,394 c 5.0664075,4.1 9.9101575,8.5 14.4999875,13.2 66.543,69.7 66.543,182.7 0,252.4 -4.58592,4.8 -9.42967,9.2 -14.4999875,13.4 z m 762.7691875,0.4 c 44.332,0.7 86.664,19.5 118.012,52.3 31.957,33.5 49.914,78.8 49.914,126.2 0,47.3 -17.957,92.7 -49.914,126.2 -31.961,33.4 -75.305,52.2 -120.5,52.2 -45.195,0 -88.539,-18.8 -120.496,-52.2 -31.961,-33.5 -49.918,-78.9 -49.918,-126.2 0,-47.4 17.957,-92.7 49.918,-126.2 32.566,-34.1 76.934,-53 122.984,-52.3 z m 866.283,39.5 c 44.33,0.7 86.65,19.4 118.01,52.2 31.96,33.5 49.91,78.9 49.91,126.2 0,47.3 -17.95,92.7 -49.91,126.2 -31.96,33.5 -75.31,52.3 -120.51,52.3 -45.2,0 -88.54,-18.8 -120.51,-52.3 -31.95,-33.5 -49.91,-78.9 -49.91,-126.2 0,-47.3 17.96,-92.7 49.91,-126.2 32.58,-34.1 76.94,-52.9 122.99,-52.2 z M 348.477,19101 c 44.332,0.7 86.66,19.4 118.007,52.2 66.543,69.7 66.543,182.7 0,252.4 -31.957,33.4 -75.304,52.3 -120.504,52.3 -45.199,0 -88.546,-18.9 -120.503,-52.3 -31.961,-33.5 -49.918,-78.9 -49.918,-126.2 0,-47.3 17.957,-92.7 49.918,-126.2 32.566,-34.1 76.929,-52.9 122.984,-52.2 z m 866.263,39.4 c 44.34,0.7 86.67,19.4 118.03,52.3 31.96,33.4 49.91,78.8 49.91,126.1 0,47.4 -17.95,92.8 -49.91,126.2 -31.97,33.5 -75.31,52.3 -120.51,52.3 -45.2,0 -88.55,-18.8 -120.51,-52.3 -66.54,-69.7 -66.54,-182.6 0,-252.3 32.57,-34.1 76.94,-53 122.99,-52.3 z M 0.0078125,19549.8 c 19.4569875,8.9 37.1523875,21.5 52.1757875,37.3 31.9609,33.4 49.9144,78.8 49.9144,126.1 0,47.4 -17.9535,92.8 -49.9144,126.2 -15.0313,15.7 -32.7227,28.3 -52.1640687,37.1 z M 800.441,19574.3 c 44.329,0.6 86.661,19.4 118.008,52.2 31.957,33.5 49.914,78.9 49.914,126.2 0,47.3 -17.957,92.7 -49.914,126.2 -31.957,33.4 -75.304,52.2 -120.5,52.2 -45.195,0 -88.539,-18.8 -120.496,-52.2 -31.961,-33.5 -49.914,-78.9 -49.914,-126.2 0,-47.3 17.953,-92.7 49.914,-126.2 32.567,-34.1 76.934,-52.9 122.988,-52.2 z m -414.316,433.8 c 44.332,0.7 86.668,19.4 118.023,52.2 31.961,33.5 49.922,78.9 49.922,126.2 0,47.4 -17.961,92.7 -49.922,126.2 -31.96,33.5 -75.304,52.3 -120.5,52.3 -45.195,0 -88.539,-18.8 -120.5,-52.3 -66.543,-69.7 -66.543,-182.7 0,-252.3 32.567,-34.1 76.926,-53 122.977,-52.3 z M 0.0078125,20445 c 34.0077875,6.5 65.3319875,23.6 89.8241875,49.2 31.957,33.4 49.914,78.8 49.914,126.2 0,47.3 -17.957,92.7 -49.914,126.1 -24.4726,25.6 -55.8086,42.8 -89.8398125,49.3 l 0.015625,-350.8"
         style="fill:#ffffff;fill-opacity:1;fill-rule:evenodd;stroke:none"
         id="path144" />
    </g>
  </g>
</svg>
